<svg version="1.2" xmlns="http://www.w3.org/2000/svg" viewBox="0 0 1000 1000" width="1000" height="1000">
	<title>product_list_icon-svg</title>
	<style>
		.s0 { fill: #000000 } 
	</style>
	<g id="530622">
		<g id="Layer">
			<g id="Layer">
				<path id="Layer" class="s0" d="m303.2 328.8c1.1 1.4 2.7 2.3 4.5 2.5 0.2 0 0.4 0 0.7 0 1.6 0 3.1-0.5 4.3-1.5l54-45.7c2.7-2.2 2.9-6 0.4-8.5-2.3-2.5-6.4-2.7-9-0.5l-48.6 41.1-18.1-24c-2-2.7-6.1-3.4-8.9-1.4-2.9 1.9-3.7 5.7-1.5 8.4 0 0 22.1 29.6 22.2 29.6z"/>
			</g>
			<g id="Layer">
				<path id="Layer" fill-rule="evenodd" class="s0" d="m396.9 246.4v112.3c0 6.8-5.8 12.3-13.1 12.3h-119.1c-7.3 0-13.1-5.5-13.1-12.3v-112.3c0-6.8 5.8-12.3 13.1-12.3h119.1c7.3 0 13.1 5.5 13.1 12.3zm-12.7 0l-119.5-0.3-0.4 112.6 119.5 0.3c0.3 0 0.4-0.3 0.4-0.3z"/>
			</g>
			<g id="Layer">
				<path id="Layer" class="s0" d="m303.2 519.5c1.1 1.4 2.7 2.3 4.5 2.5 0.2 0 0.4 0 0.7 0 1.6 0 3.1-0.5 4.3-1.5l54-45.7c2.7-2.2 2.9-6 0.4-8.5-2.3-2.5-6.4-2.7-9-0.5l-48.6 41.1-18-24.1c-2-2.7-6.1-3.4-8.9-1.4-2.9 1.9-3.7 5.8-1.5 8.5z"/>
			</g>
			<g id="Layer">
				<path id="Layer" fill-rule="evenodd" class="s0" d="m396.9 437v112.2c0 6.9-5.8 12.4-13.1 12.4h-119.1c-7.3 0-13.1-5.5-13.1-12.4v-112.2c0-6.8 5.8-12.3 13.1-12.3h119.1c7.3 0 13.1 5.5 13.1 12.3zm-12.7 0l-119.5-0.3-0.4 112.5 119.5 0.3c0.3 0 0.4-0.3 0.4-0.3z"/>
			</g>
			<g id="Layer">
				<path id="Layer" class="s0" d="m303.2 710c1.1 1.4 2.7 2.3 4.5 2.5 0.2 0 0.4 0 0.7 0 1.6 0 3.1-0.5 4.3-1.5l54-45.6c2.7-2.2 2.9-6 0.4-8.5-2.3-2.5-6.4-2.7-9-0.5l-48.6 41.1-18-24.1c-2-2.7-6.1-3.4-8.9-1.4-2.9 1.9-3.7 5.7-1.5 8.4z"/>
			</g>
			<g id="Layer">
				<path id="Layer" fill-rule="evenodd" class="s0" d="m396.9 627.7v112.2c0 6.8-5.8 12.4-13.1 12.4h-119.1c-7.3 0-13.1-5.6-13.1-12.4v-112.2c0-6.8 5.8-12.4 13.1-12.4h119.1c7.3 0 13.1 5.6 13.1 12.4zm-12.7 0l-119.5-0.3-0.4 112.5 119.5 0.3c0.3 0 0.4-0.3 0.4-0.3z"/>
			</g>
			<g id="Layer">
				<path id="Layer" class="s0" d="m463 258.8h166.2c3.5 0 6.4-2.7 6.4-6.1 0-3.3-2.9-6-6.4-6h-166.2c-3.5 0-6.4 2.7-6.4 6 0 3.4 2.9 6.1 6.4 6.1z"/>
			</g>
			<g id="Layer">
				<path id="Layer" class="s0" d="m463 358.3h166.2c3.5 0 6.4-2.7 6.4-6.1 0-3.3-2.9-6-6.4-6h-166.2c-3.5 0-6.4 2.7-6.4 6 0 3.4 2.9 6.1 6.4 6.1z"/>
			</g>
			<g id="Layer">
				<path id="Layer" class="s0" d="m463 308.5h166.2c3.5 0 6.4-2.7 6.4-6 0-3.3-2.9-6-6.4-6h-166.2c-3.5 0-6.4 2.7-6.4 6 0 3.3 2.9 6 6.4 6z"/>
			</g>
			<g id="Layer">
				<path id="Layer" class="s0" d="m463 449.4h166.2c3.5 0 6.4-2.7 6.4-6 0-3.3-2.9-6-6.4-6h-166.2c-3.5 0-6.4 2.7-6.4 6 0 3.3 2.9 6 6.4 6z"/>
			</g>
			<g id="Layer">
				<path id="Layer" class="s0" d="m635.5 542.8c0-3.3-2.9-6-6.4-6h-166.2c-3.5 0-6.4 2.7-6.4 6 0 3.3 2.9 6 6.4 6h166.2c3.5 0 6.4-2.7 6.4-6z"/>
			</g>
			<g id="Layer">
				<path id="Layer" class="s0" d="m463 499.2h166.2c3.5 0 6.4-2.7 6.4-6 0-3.3-2.9-6-6.4-6h-166.2c-3.5 0-6.4 2.7-6.4 6 0 3.3 2.9 6 6.4 6z"/>
			</g>
			<g id="Layer">
				<path id="Layer" fill-rule="evenodd" class="s0" d="m853 631.8c0 0.1 0 177.5 0 177.5 0 2.2-1.4 4.4-3.5 5.4l-165.7 79.4c-0.9 0.5-2 0.7-2.9 0.7-1 0-1.9-0.2-2.8-0.6l-119.4-53.9h-334.1c-30.9 0-56-23.6-56-52.7v-683.8c0-18.8 16.2-34 36.1-34h47.2v-43.6c0-3.4 2.9-6.1 6.4-6.1 3.5 0 6.4 2.7 6.4 6.1v43.6h110.5v-43.6c0-3.4 2.9-6.1 6.4-6.1 3.5 0 6.4 2.7 6.4 6.1v43.6h110.7v-43.6c0-3.4 2.8-6.1 6.3-6.1 3.6 0 6.4 2.7 6.4 6.1v43.6h110.6v-43.6c0-3.4 2.9-6.1 6.4-6.1 3.5 0 6.4 2.7 6.4 6.1v43.6h47.2c19.9 0 36.1 15.2 36.1 34v479.9l131 42.5c0.3 0.1 0.5 0.4 0.8 0.5 0.1 0.2 0.3 0.1 0.5 0.2 0.3 0.1 0.3 0.3 0.4 0.3 0.6 0.5 1.1 1 1.6 1.6 0.1 0.1 0.3 0.2 0.3 0.4 0.5 0.8 0.7 1.7 0.7 2.6zm-23.4 0.9l-44.7-14.5-151.8 57.9 48 18.8zm-266.7 196.1l111.9 50.4v-173.7l-52.2-20.3v59.1c0 2.1-1.2 4-3.1 5.1-1 0.6-2.1 0.9-3.3 0.9-1 0-2-0.2-2.9-0.6l-51-24.1c-2.1-1.1-3.5-3.1-3.5-5.4v-59.9l-47.2-18.5v163.7l51.4 23.2zm118.2-244.4l-157.7 49 41.8 16.2 149.5-54.2-5.4-1.8c-0.1 0-28.2-9.2-28.2-9.2zm52.5 17l-99.5 36.1c-1.2 1.4-3 2.4-5 2.4h-1.7l-45.1 16.4 33.9 13.2 150.3-57.4zm-200.5 226.9l-29.9-13.5c-2.2-1-3.6-3.1-3.6-5.4 0-0.1 0-176.8 0-176.8 0-0.9 0.2-1.8 0.6-2.6 0-0.1 0.2-0.3 0.2-0.3 0.4-0.7 1-1.2 1.6-1.7 0.1 0 0.2-0.2 0.2-0.2 0.3-0.2 0.5-0.2 0.7-0.2 0.3-0.2 0.9-0.5 0.9-0.5l176-54.7c1.3-0.4 2.8-0.4 4 0l22.2 7.3v-475.9c0-12.1-10.4-22-23.3-22h-47.2v27.7c14 2.8 24.7 14.6 24.7 28.7 0 16.3-14 29.4-31.2 29.4-17.3 0-31.2-13.2-31.2-29.4 0-14.1 10.6-26 24.8-28.8v-27.7h-110.6v27.7c14.1 2.8 24.8 14.6 24.8 28.7 0 16.3-14 29.4-31.3 29.4-17.2 0-31.2-13.2-31.2-29.4 0-14.1 10.7-26 24.9-28.8v-27.7h-110.7v27.7c14.2 2.8 24.8 14.7 24.8 28.8 0 16.3-13.9 29.4-31.2 29.4-17.2 0-31.2-13.2-31.2-29.4 0-14 10.5-25.9 24.7-28.7v-27.7h-110.5v27.7c14.1 2.8 24.8 14.7 24.8 28.8 0 16.3-14 29.4-31.2 29.4-17.3 0-31.2-13.2-31.2-29.4 0-14 10.6-25.9 24.8-28.7v-27.7h-47.2c-12.9 0-23.3 9.9-23.3 22v683.7c0 22.5 19.4 40.7 43.2 40.7 0 0.1 308.1 0.1 308.1 0.1zm38.5-112l38.2 18.1v-54.3l-38.2-15zm-331.4-577.9c0 9.6 8.4 17.3 18.5 17.3 10.1 0 18.4-7.7 18.4-17.3 0-9.7-8.3-17.4-18.4-17.4-10.1 0-18.5 7.7-18.5 17.4zm123.4 0c0 9.6 8.3 17.3 18.4 17.3 10.1 0 18.4-7.7 18.4-17.3 0-9.7-8.3-17.4-18.4-17.4-10.1 0-18.4 7.7-18.4 17.4zm123.3 0c0 9.6 8.3 17.3 18.4 17.3 10.2 0 18.5-7.7 18.5-17.3 0-9.7-8.3-17.4-18.5-17.4-10.1 0-18.4 7.7-18.4 17.4zm123.3 0c0 9.6 8.3 17.3 18.5 17.3 10.1 0 18.4-7.7 18.4-17.3 0-9.7-8.3-17.4-18.4-17.4-10.2 0-18.5 7.7-18.5 17.4zm230.6 667.3v-164.4l-153 64.1v173.6l152.9-73.3z"/>
			</g>
		</g>
	</g>
</svg>