<svg xmlns="http://www.w3.org/2000/svg" xmlns:xlink="http://www.w3.org/1999/xlink" version="1.1" x="0px" y="0px" viewBox="0 0 512 640" enable-background="new 0 0 512 512" xml:space="preserve"><path d="M489.312,163.773c-13.156-19.828-31.25-35.75-52.344-46.062l-2.156-1.047l-0.766-2.266  c-9.156-27.281-26.594-51.984-49.125-69.5c-25.297-19.672-55.516-30.062-87.422-30.062c-42.781,0-83.094,19.219-110.625,52.688  l-3.047,3.719l-4.188-2.375c-12-6.766-25.594-10.359-39.281-10.359c-44.641,0-80.969,36.984-80.969,82.469  c0,3.688,0.234,7.359,0.719,11.016l0.484,3.75l-3.297,1.906C21.969,178.195,0,216.727,0,258.227  c0,63.891,50.984,115.875,113.672,115.875h133.219v113.953c0,5.031,4.094,9.109,9.109,9.109s9.109-4.078,9.109-9.109V374.102H379.75  c35.344,0,68.594-14.047,93.578-39.562C498.266,309.086,512,275.258,512,239.273C512,212.211,504.156,186.102,489.312,163.773z   M379.75,355.867H265.109v-113l68.328,68.375c3.453,3.422,9.438,3.453,12.891,0c3.547-3.562,3.547-9.344-0.016-12.906  l-83.875-83.891c-3.453-3.422-9.422-3.422-12.875,0l-83.891,83.891c-3.547,3.562-3.547,9.344,0,12.906  c3.453,3.422,9.438,3.422,12.891-0.016l68.328-68.359v113H113.672c-52.641,0-95.453-43.812-95.453-97.641  c0-38.531,22.25-73.547,56.688-89.203l7.047-3.188l-2.031-7.484c-1.531-5.609-2.297-11.453-2.297-17.375  c0-35.422,28.141-64.25,62.734-64.25c14.656,0,28.344,5,39.625,14.453l7.781,6.531l5.625-8.438  c23.578-35.219,62.5-56.219,104.109-56.219c27.797,0,54.172,9.062,76.25,26.219c21.406,16.641,37.297,40.266,44.766,66.5  l1.188,4.188l3.984,1.688c42.578,18.188,70.094,60.438,70.094,107.625C493.781,303.555,442.625,355.867,379.75,355.867z"/><text x="0" y="527" fill="#000000" font-size="5px" font-weight="bold" font-family="'Helvetica Neue', Helvetica, Arial-Unicode, Arial, Sans-serif">Created by Gamma Designs</text><text x="0" y="532" fill="#000000" font-size="5px" font-weight="bold" font-family="'Helvetica Neue', Helvetica, Arial-Unicode, Arial, Sans-serif">from the Noun Project</text></svg>